<svg width="106" height="46" viewBox="0 0 106 46" fill="none" xmlns="http://www.w3.org/2000/svg">
<path d="M22.3125 14.875C20.2412 14.8773 18.2554 15.7011 16.7907 17.1657C15.3261 18.6304 14.5023 20.6162 14.5 22.6875V29.2758C14.5004 29.6003 14.6295 29.9115 14.859 30.141C15.0885 30.3705 15.3997 30.4996 15.7242 30.5H22.3125C24.3845 30.5 26.3716 29.6769 27.8368 28.2118C29.3019 26.7466 30.125 24.7595 30.125 22.6875C30.125 20.6155 29.3019 18.6284 27.8368 17.1632C26.3716 15.6981 24.3845 14.875 22.3125 14.875ZM24.5 24.875H19.5C19.3342 24.875 19.1753 24.8092 19.0581 24.6919C18.9408 24.5747 18.875 24.4158 18.875 24.25C18.875 24.0842 18.9408 23.9253 19.0581 23.8081C19.1753 23.6908 19.3342 23.625 19.5 23.625H24.5C24.6658 23.625 24.8247 23.6908 24.9419 23.8081C25.0592 23.9253 25.125 24.0842 25.125 24.25C25.125 24.4158 25.0592 24.5747 24.9419 24.6919C24.8247 24.8092 24.6658 24.875 24.5 24.875ZM24.5 22.375H19.5C19.3342 22.375 19.1753 22.3092 19.0581 22.1919C18.9408 22.0747 18.875 21.9158 18.875 21.75C18.875 21.5842 18.9408 21.4253 19.0581 21.3081C19.1753 21.1908 19.3342 21.125 19.5 21.125H24.5C24.6658 21.125 24.8247 21.1908 24.9419 21.3081C25.0592 21.4253 25.125 21.5842 25.125 21.75C25.125 21.9158 25.0592 22.0747 24.9419 22.1919C24.8247 22.3092 24.6658 22.375 24.5 22.375Z" fill="#8A94A6"/>
<path d="M56.3111 21.1662H54.3168C54.2401 20.7401 54.0973 20.3651 53.8885 20.0412C53.6797 19.7173 53.424 19.4425 53.1214 19.2166C52.8189 18.9908 52.4801 18.8203 52.1051 18.7053C51.7344 18.5902 51.3402 18.5327 50.9226 18.5327C50.1683 18.5327 49.4929 18.7223 48.8963 19.1016C48.304 19.4808 47.8352 20.0369 47.4901 20.7699C47.1491 21.5028 46.9787 22.3977 46.9787 23.4545C46.9787 24.5199 47.1491 25.419 47.4901 26.152C47.8352 26.8849 48.3061 27.4389 48.9027 27.8139C49.4993 28.1889 50.1705 28.3764 50.9162 28.3764C51.3295 28.3764 51.7216 28.321 52.0923 28.2102C52.4673 28.0952 52.8061 27.9268 53.1087 27.7053C53.4112 27.4837 53.6669 27.2131 53.8757 26.8935C54.0888 26.5696 54.2358 26.1989 54.3168 25.7812L56.3111 25.7876C56.2045 26.4311 55.9979 27.0234 55.6911 27.5646C55.3885 28.1016 54.9986 28.5661 54.5213 28.9581C54.0483 29.3459 53.5071 29.6463 52.8977 29.8594C52.2884 30.0724 51.6236 30.179 50.9034 30.179C49.7699 30.179 48.7599 29.9105 47.8736 29.3736C46.9872 28.8324 46.2884 28.0589 45.777 27.0533C45.2699 26.0476 45.0163 24.848 45.0163 23.4545C45.0163 22.0568 45.272 20.8572 45.7834 19.8558C46.2947 18.8501 46.9936 18.0788 47.88 17.5419C48.7663 17.0007 49.7741 16.7301 50.9034 16.7301C51.598 16.7301 52.2457 16.8303 52.8466 17.0305C53.4517 17.2266 53.995 17.5163 54.4766 17.8999C54.9581 18.2791 55.3565 18.7436 55.6719 19.2933C55.9872 19.8388 56.2003 20.4631 56.3111 21.1662ZM60.2524 24.1705V30H58.3411V16.9091H60.2268V21.7798H60.3482C60.5783 21.2514 60.9299 20.8317 61.4029 20.5206C61.8759 20.2095 62.4938 20.054 63.2566 20.054C63.9299 20.054 64.518 20.1925 65.0208 20.4695C65.5279 20.7464 65.92 21.1598 66.197 21.7095C66.4782 22.255 66.6188 22.9368 66.6188 23.755V30H64.7076V23.9851C64.7076 23.2649 64.5222 22.7067 64.1515 22.3104C63.7808 21.9098 63.2651 21.7095 62.6046 21.7095C62.1529 21.7095 61.7481 21.8054 61.3901 21.9972C61.0364 22.1889 60.7573 22.4702 60.5528 22.8409C60.3525 23.2074 60.2524 23.6506 60.2524 24.1705ZM71.8465 30.2173C71.2243 30.2173 70.6618 30.1023 70.159 29.8722C69.6562 29.6378 69.2577 29.299 68.9637 28.8558C68.6739 28.4126 68.529 27.8693 68.529 27.2259C68.529 26.6719 68.6356 26.2159 68.8486 25.858C69.0617 25.5 69.3493 25.2166 69.7116 25.0078C70.0738 24.799 70.4786 24.6413 70.926 24.5348C71.3735 24.4283 71.8295 24.3473 72.2939 24.2919C72.882 24.2237 73.3593 24.1683 73.7258 24.1257C74.0922 24.0788 74.3586 24.0043 74.5248 23.902C74.691 23.7997 74.7741 23.6335 74.7741 23.4034V23.3587C74.7741 22.8004 74.6164 22.3679 74.301 22.0611C73.99 21.7543 73.5255 21.6009 72.9076 21.6009C72.2641 21.6009 71.757 21.7436 71.3863 22.0291C71.0198 22.3104 70.7662 22.6236 70.6256 22.9688L68.8295 22.5597C69.0425 21.9631 69.3536 21.4815 69.7627 21.1151C70.176 20.7443 70.6512 20.4759 71.1881 20.3097C71.725 20.1392 72.2897 20.054 72.882 20.054C73.2741 20.054 73.6895 20.1009 74.1285 20.1946C74.5716 20.2841 74.985 20.4503 75.3685 20.6932C75.7563 20.9361 76.0738 21.2834 76.3209 21.7351C76.5681 22.1825 76.6917 22.7642 76.6917 23.4801V30H74.8252V28.6577H74.7485C74.6249 28.9048 74.4395 29.1477 74.1924 29.3864C73.9452 29.625 73.6277 29.8232 73.24 29.9808C72.8522 30.1385 72.3877 30.2173 71.8465 30.2173ZM72.262 28.6832C72.7904 28.6832 73.2421 28.5788 73.6171 28.37C73.9964 28.1612 74.284 27.8885 74.48 27.5518C74.6803 27.2109 74.7804 26.8466 74.7804 26.4588V25.1932C74.7123 25.2614 74.5802 25.3253 74.3841 25.3849C74.1924 25.4403 73.9729 25.4893 73.7258 25.532C73.4786 25.5703 73.2378 25.6065 73.0035 25.6406C72.7691 25.6705 72.5731 25.696 72.4154 25.7173C72.0447 25.7642 71.7059 25.843 71.3991 25.9538C71.0965 26.0646 70.8536 26.2244 70.6704 26.4332C70.4914 26.6378 70.4019 26.9105 70.4019 27.2514C70.4019 27.7244 70.5766 28.0824 70.926 28.3253C71.2755 28.5639 71.7208 28.6832 72.262 28.6832ZM83.6404 20.1818V21.7159H78.2775V20.1818H83.6404ZM79.7157 17.8295H81.6269V27.1172C81.6269 27.4879 81.6823 27.767 81.7931 27.9545C81.9039 28.1378 82.0466 28.2635 82.2214 28.3317C82.4003 28.3956 82.5942 28.4276 82.803 28.4276C82.9564 28.4276 83.0907 28.4169 83.2057 28.3956C83.3208 28.3743 83.4103 28.3572 83.4742 28.3445L83.8194 29.9233C83.7086 29.9659 83.5509 30.0085 83.3464 30.0511C83.1418 30.098 82.8861 30.1236 82.5793 30.1278C82.0765 30.1364 81.6077 30.0469 81.1731 29.8594C80.7384 29.6719 80.3868 29.3821 80.1184 28.9901C79.8499 28.598 79.7157 28.1058 79.7157 27.5135V17.8295ZM92.7736 22.5788L91.0414 22.8857C90.9689 22.6641 90.8539 22.4531 90.6962 22.2528C90.5428 22.0526 90.334 21.8885 90.0698 21.7607C89.8056 21.6328 89.4753 21.5689 89.079 21.5689C88.5378 21.5689 88.0861 21.6903 87.7239 21.9332C87.3617 22.1719 87.1806 22.4808 87.1806 22.8601C87.1806 23.1882 87.302 23.4524 87.5449 23.6527C87.7878 23.853 88.1799 24.017 88.721 24.1449L90.2807 24.5028C91.1841 24.7116 91.8574 25.0334 92.3006 25.468C92.7438 25.9027 92.9654 26.4673 92.9654 27.1619C92.9654 27.75 92.7949 28.2741 92.454 28.7344C92.1174 29.1903 91.6465 29.5483 91.0414 29.8082C90.4405 30.0682 89.7438 30.1982 88.9512 30.1982C87.8517 30.1982 86.9547 29.9638 86.2601 29.495C85.5655 29.022 85.1394 28.3509 84.9817 27.4815L86.829 27.2003C86.9441 27.6818 87.1806 28.0462 87.5385 28.2933C87.8965 28.5362 88.3631 28.6577 88.9384 28.6577C89.5648 28.6577 90.0655 28.5277 90.4405 28.2678C90.8155 28.0036 91.003 27.6818 91.003 27.3026C91.003 26.9957 90.888 26.7379 90.6578 26.5291C90.432 26.3203 90.0847 26.1626 89.6159 26.0561L87.954 25.6918C87.0378 25.483 86.3603 25.1506 85.9213 24.6946C85.4867 24.2386 85.2693 23.6612 85.2693 22.9624C85.2693 22.3828 85.4313 21.8757 85.7551 21.4411C86.079 21.0064 86.5264 20.6676 87.0975 20.4247C87.6685 20.1776 88.3226 20.054 89.0598 20.054C90.1209 20.054 90.9561 20.2841 91.5655 20.7443C92.1749 21.2003 92.5776 21.8118 92.7736 22.5788Z" fill="#8A94A6"/>
</svg>
